PathFileType	4	(X/Y/Z)	20_2_40_p1_0-535_filt_butterworth.trc
DataRate	CameraRate	NumFrames	NumMarkers	Units	OrigDataRate	OrigDataStartFrame	OrigNumFrames
60.0	60.0	7	27	m	60.0	0	535
Frame#	Time	RHip			RKnee			RAnkle			RBigToe			RSmallToe			RHeel			LHip			LKnee			LAnkle			LBigToe			LSmallToe			LHeel			Neck			Head			Nose			RShoulder			RElbow			RWrist			RThumb			RIndex			RPinky			LShoulder			LElbow			LWrist			LThumb			LIndex			LPinky			
		X1	Y1	Z1	X2	Y2	Z2	X3	Y3	Z3	X4	Y4	Z4	X5	Y5	Z5	X6	Y6	Z6	X7	Y7	Z7	X8	Y8	Z8	X9	Y9	Z9	X10	Y10	Z10	X11	Y11	Z11	X12	Y12	Z12	X13	Y13	Z13	X14	Y14	Z14	X15	Y15	Z15	X16	Y16	Z16	X17	Y17	Z17	X18	Y18	Z18	X19	Y19	Z19	X20	Y20	Z20	X21	Y21	Z21	X22	Y22	Z22	X23	Y23	Z23	X24	Y24	Z24	X25	Y25	Z25	X26	Y26	Z26	X27	Y27	Z27	
0	0.0	0.3552292619972018	0.5846275265435142	0.9943279617451593	0.349675546474551	0.6963832468503234	1.3671891559899334	0.3606986110586275	0.8096261435994413	1.7404928869886418	0.3159280754405371	0.6574542880979124	1.8110132833031634	0.3870559759170883	0.6569881554686356	1.802031459448227	0.3356608124762327	0.9101297729951345	1.7910229206539503	0.15339574078721877	0.5817369621143192	0.9962374848729556	0.14588142065555504	0.6939005658070342	1.351740304296903	0.14358233665075074	0.8164900258557111	1.6993773187164796	0.1493868051885536	0.6347184846737132	1.7831605777986175	0.0965828873862114	0.6901238853323639	1.7867887547982289	0.16073650794400848	0.8483115013092815	1.745380962887568	0.2648142758658124	0.43544081866449474	0.4416250311191051	0.27011809045828455	0.35909480807255884	0.215510655678931	0.26000314997442403	0.3133493732346815	0.33163864178739333	0.40188522223250084	0.43699561688397837	0.5302496081493707	0.46249932985889597	0.49143852842317465	0.8020400187988986	0.3155519372190364	0.3790392092328487	0.9591897389337489	0.20964749434871138	0.30747760200653673	0.9691987064296449	0.19396193570445863	0.32469667498524124	0.9940646838599156	0.21665883420331863	0.34675383902894263	1.0437280313327792	0.11674769372439468	0.5011824204238735	0.5255505189294545	0.0770354974104416	0.487873831330979	0.7711373719159507	0.19271836206842843	0.3598700356590037	0.9427242152405912	0.2397987786046629	0.2828486800391879	0.9646927079627509	0.2459883625281281	0.2758357097682495	1.0072230929695003	0.22758917181919766	0.37454398414300777	1.033107248538037
1	0.0166666666666666	0.3581286125168971	0.5843540891705662	0.992681215863946	0.3542158568026444	0.6958624101606768	1.370710090063614	0.3589632222549055	0.8040063156016729	1.7388680870955668	0.31271204194134483	0.6488530342321842	1.805257591049442	0.3836482311340055	0.6565829634701332	1.8017151289178481	0.3358120872072949	0.9089491634816602	1.793329934192533	0.15979449757530112	0.5732458279169915	0.9949633387399929	0.1457819339968381	0.693771220693345	1.3517291841962407	0.14332066527678486	0.8164701401745006	1.7041458126342568	0.1492143281621065	0.6343967878640183	1.7861591032825384	0.09651163665129606	0.6903587136689467	1.7868588655411481	0.16333555819414486	0.8583865787486439	1.7490111039280816	0.26492970451592673	0.43513772481715157	0.43960212128160714	0.27019087230855154	0.3594607413085596	0.21628008233296	0.2599669350824877	0.313773035451594	0.33029552524182737	0.4042866861336014	0.43743944461453405	0.5300494381221498	0.4609259052284471	0.4980072174923831	0.8017758189170798	0.31463275269219276	0.3804957892787013	0.9603262632017243	0.21124833700372203	0.30231884188454705	0.9713015938084707	0.194707892210197	0.3222519008910391	1.0019775986675974	0.22272008834512697	0.3583891452039224	1.0451193413752935	0.11582360918123114	0.49801852534904223	0.5241669728809774	0.07416155131994881	0.48665717460774405	0.7689783327866001	0.1926537467295363	0.35962376916094624	0.9426891589995355	0.24309304305216992	0.2912274519890799	0.9687428989363349	0.24894705637967315	0.28450258715879806	1.0111053664095278	0.22873313335496903	0.37691656508471144	1.0340270571210823
2	0.0333333333333333	0.35999881692567376	0.5840211084438296	0.9911544531601001	0.3569210861085004	0.6956859911984095	1.3723448404968468	0.3573181850416194	0.7987184550093468	1.7372353942410346	0.3107382348882491	0.6436285362074347	1.8017330827564657	0.38151556284862675	0.6564799380948735	1.8015245413577483	0.33586661107861027	0.9082603426708429	1.7946250001291402	0.1641565150910199	0.5677886661035842	0.993278735427516	0.1457291968821655	0.6937270009511121	1.3516269777140322	0.14333232913169222	0.8164218987276712	1.7062565906659615	0.14919292980182805	0.634295819077205	1.7867557031213175	0.09646679068460172	0.6904306089366712	1.7868562257697063	0.16489342715704675	0.8645928278327519	1.7512732311143298	0.2650559388595729	0.4347789504641153	0.4383822504996761	0.2702206137465416	0.3595731218356184	0.21659398920872208	0.2599497053009624	0.31401854900454923	0.3296747102927653	0.40575679532650394	0.43774294000598135	0.5299404944659795	0.4592058187258046	0.4997568463291623	0.8016747697851547	0.31349825796303654	0.38085469519409815	0.9606653175548109	0.21332160378040751	0.29441677803348737	0.9720391331842664	0.1951894855012749	0.3170313494816384	1.0067360051526035	0.22686888723862011	0.3614787863511141	1.0453531493259636	0.1154372492563644	0.4967093945138093	0.5231018474694583	0.07175414434009468	0.4856232572602913	0.7676580031743994	0.19258058545438922	0.35967843288644397	0.942388191159532	0.24453391392315416	0.2949215784802533	0.9717450245012463	0.24981437191520373	0.29000347379194374	1.0138072510021237	0.22946409235775295	0.3783872963835041	1.0335573816722616
3	0.05	0.3606889143074383	0.5837308513590314	0.9901537276745055	0.35765799402558507	0.6957945709079726	1.3723150289107824	0.3561848799554178	0.7950987593904577	1.736023048943505	0.3101370895672528	0.6422002508109478	1.8008318049748249	0.38081059170278614	0.6566684717504148	1.8014827166352039	0.33584197824585965	0.9081293977692241	1.7948667664609992	0.16598389956338858	0.5654188427020206	0.9907605729161628	0.14572013436904035	0.6938238191584605	1.3511913431515072	0.1435485546442776	0.8163434288665034	1.7057589018326624	0.14926092320721346	0.6344914273663038	1.7853024268319866	0.09644909089670554	0.690367426306304	1.7867801245013406	0.16531859631066334	0.8665810774053515	1.7520322477106505	0.2651595098792855	0.43447498918087873	0.43804326408908206	0.270195305765468	0.35935459808620196	0.21630601335035965	0.2599492376354833	0.314024877161841	0.32989238430044476	0.40621306691617004	0.437870436156899	0.5299367546744823	0.45748733112229656	0.49719732280185497	0.8018980166855223	0.312193226962368	0.3792663703394168	0.9602190634573453	0.21484906343425003	0.2868144337680293	0.9714187188257608	0.19602895805424095	0.3103343439710298	1.0068781333114372	0.2286232791853061	0.3570391713084927	1.044616869757199	0.11573603300442642	0.49786235397009143	0.5222152681017086	0.07005923208486386	0.4848715527945697	0.7672512382189143	0.1926155015415391	0.3600611040497439	0.941523885195362	0.24360944909335316	0.2923627554659278	0.9731224303633998	0.24800936538131152	0.29102927188565436	1.0143873418956901	0.22950228763564337	0.37783934498602484	1.0314884959400992
4	0.0666666666666666	0.36069316105705995	0.5836638901087088	0.9899639394315013	0.35745127765816176	0.6959940734235267	1.371877994328	0.355760549854937	0.793750298740137	1.7355044710840992	0.3102442065147278	0.6428583591104392	1.8016832739792958	0.38088110668454145	0.656936987641158	1.801532979294798	0.3358168764674002	0.9082889575166446	1.7946212607428467	0.16620682566243583	0.5645947238133416	0.9878420374265354	0.14570988381260228	0.6941013814520935	1.3502077458755068	0.14365410710731846	0.8163645958768342	1.7045249825508897	0.14930868071502362	0.634793623436656	1.7836794619413368	0.09644174767508605	0.6903044472523188	1.7866862204607956	0.16518045234243237	0.8663949058282854	1.7519866240083366	0.2652162127713579	0.434332985104319	0.4381460617928564	0.2701542179533074	0.35904331764917746	0.21578236620021163	0.2599742901855669	0.3139284643557288	0.3306077643949075	0.40616866261487905	0.43787675591181485	0.5299935555276164	0.45621401255496574	0.49420071503469537	0.8022916195955773	0.31071575254744055	0.3754043068957459	0.9592054441825569	0.2146888141083695	0.28294661432454554	0.9704740117449346	0.19772173803076457	0.30541058021163275	1.0033956232955696	0.22893724850833796	0.35145083696984986	1.0438822951825644	0.11629294184025807	0.4999919757075158	0.521480440782952	0.06916146339808718	0.4844353327696672	0.767302126135811	0.19304193817231208	0.3603654454856915	0.9399221343524784	0.24105991394886775	0.28499956526466874	0.9728665437020363	0.24489420789267885	0.28736346492300346	1.0124144568939974	0.2288653468438952	0.3747281135824353	1.028772654991883
5	0.0833333333333333	0.36047873864732427	0.583855271927997	0.9904756951150495	0.3571587961763527	0.6962317650535492	1.3715762927542419	0.3557686688530059	0.7937856885344026	1.7354671183195371	0.31045134816676945	0.6440285316484001	1.8033886710066385	0.381119879962577	0.6571185922819471	1.8016052956176427	0.3358285036081086	0.9084700903820816	1.7943490044973278	0.16593335346833055	0.5644225351167724	0.9857043100259697	0.14567065056344175	0.6945035352888235	1.3489047372875227	0.14345033328318918	0.816728163613665	1.70387254824441	0.14932842449804	0.6350201263489352	1.7829195492445546	0.096431442594786	0.6902918241981123	1.786620366524152	0.1649782478485205	0.8657983741030635	1.7517699995598366	0.2652416829320159	0.4343195816956049	0.43830152290582897	0.2701406040051809	0.35890663568535364	0.21545015632886014	0.2600943794487671	0.31408897165370553	0.3312846343216524	0.40606310024066583	0.437839646871187	0.5300639677159478	0.45561153831497625	0.49298818972415415	0.8025668138923325	0.30916514493252906	0.37034178299391646	0.9576615867132153	0.2129779811011075	0.2824915369868195	0.9699140875369741	0.20009398341437815	0.3032816968938112	0.9983570562617208	0.22915985652734988	0.3482312741453231	1.0437616872929727	0.11664453206203507	0.5013576315035494	0.5210605692351704	0.06889937460667259	0.4842604289019541	0.767421577473098	0.19400687113502893	0.35965110988560023	0.9375454968703745	0.23806565174828503	0.27581769038289816	0.9711507322313232	0.24251643549797144	0.27997318837182356	1.0084109638314314	0.2279062666837101	0.37021029894443347	1.026384773619546
6	0.1	0.36023276803008064	0.5839708035444707	0.9911320535900293	0.3570963236407758	0.6963991443789086	1.3710587057814199	0.3558754564902123	0.7941379151691016	1.7355884835848812	0.31047899079720015	0.6449494651437115	1.8051472939294524	0.381268573188263	0.6571428815644877	1.8016385805998312	0.33584774180674076	0.9085945336646436	1.7943747710129738	0.1656162736393208	0.5645700300654594	0.9848535765888482	0.14561643476700223	0.6948450512720723	1.347846029883029	0.14304324888150466	0.8174405969582279	1.7038873432614405	0.1493413518953456	0.6352789517056415	1.7829838017540558	0.09641463376298173	0.6902800919568359	1.7865882064648475	0.1649020063511297	0.8655592538200326	1.7517124664253514	0.26525596321401423	0.434337643925771	0.4383683629681093	0.27015541195272713	0.35894840449839227	0.21536380275759437	0.2604282544745665	0.3149396051656047	0.33154206257715335	0.4060399279665434	0.437821381725375	0.530118315749833	0.45547419960392044	0.49317814294344564	0.8026657971460199	0.30798635721768003	0.3662345948653377	0.95586976849938	0.21053639126262758	0.28419749691738017	0.9696247454549761	0.20237054164479626	0.30231001321039686	0.992921841708303	0.23010400384114627	0.34711161806478197	1.0442370899278384	0.11673844774407727	0.5017152921602648	0.5209182255119645	0.06889643990130169	0.484223232369714	0.7674865837673601	0.19521557915097365	0.35685403990467945	0.9345814397558598	0.23546054875701222	0.2680629080823404	0.9684617275898217	0.2414690733954797	0.27201735075633415	1.0037274936623983	0.22717063390556275	0.366484003433081	1.024296882138901
